<?xml version="1.0" encoding="UTF-8" standalone="no"?>
<!-- Created with Inkscape (http://www.inkscape.org/) -->

<svg
   version="1.1"
   id="svg2"
   xml:space="preserve"
   width="21.333332"
   height="21.333332"
   viewBox="0 0 21.333332 21.333332"
   sodipodi:docname="1becfd83090af7ff17b2623600047325.ai"
   xmlns:inkscape="http://www.inkscape.org/namespaces/inkscape"
   xmlns:sodipodi="http://sodipodi.sourceforge.net/DTD/sodipodi-0.dtd"
   xmlns="http://www.w3.org/2000/svg"
   xmlns:svg="http://www.w3.org/2000/svg"><defs
     id="defs6"><clipPath
       clipPathUnits="userSpaceOnUse"
       id="clipPath16"><path
         d="M 0,16 H 16 V 0 H 0 Z"
         id="path14" /></clipPath><clipPath
       clipPathUnits="userSpaceOnUse"
       id="clipPath24"><path
         d="M 0,16 H 16 V 0 H 0 Z"
         id="path22" /></clipPath></defs><sodipodi:namedview
     id="namedview4"
     pagecolor="#ffffff"
     bordercolor="#666666"
     borderopacity="1.0"
     inkscape:pageshadow="2"
     inkscape:pageopacity="0.0"
     inkscape:pagecheckerboard="0" /><g
     id="g8"
     inkscape:groupmode="layer"
     inkscape:label="1becfd83090af7ff17b2623600047325"
     transform="matrix(1.3333333,0,0,-1.3333333,0,21.333333)"><g
       id="g10"><g
         id="g12"
         clip-path="url(#clipPath16)"><g
           id="g18"><g
             id="g20" /><g
             id="g30"><g
               clip-path="url(#clipPath24)"
               opacity="0"
               id="g28"><path
                 d="M 16,0 H 0 v 16 h 16 z"
                 style="fill:#ffffff;fill-opacity:1;fill-rule:nonzero;stroke:none"
                 id="path26" /></g></g></g><g
           id="g32"
           transform="translate(6.5525,9.9226)"><path
             d="M 0,0 -1.373,-1.373 -2.452,-0.294 0,2.159 1.483,0.676 4.061,3.253 c -0.97,0.863 -2.247,1.388 -3.647,1.388 -3.029,0 -5.484,-2.455 -5.484,-5.484 0,-1.02 0.278,-1.976 0.764,-2.794 L -2.682,-6.76 -2.98,-9.923 h 6.801 c 0,0 -0.271,1.822 0.189,3.272 h 2.697 l 0.031,3.577 h 0.727 c 0,0 -2.206,4.83 -2.414,5.159 L 1.483,-1.483 Z"
             style="fill:#f84b68;fill-opacity:1;fill-rule:nonzero;stroke:none"
             id="path34" /></g><g
           id="g36"
           transform="translate(14.5171,12.5141)"><path
             d="M 0,0 0.001,3.468 H -0.017 V 3.486 H -3.486 L -3.485,2.245 H -2.32 L -3.904,0.661 c 0.382,-0.34 0.716,-0.734 0.991,-1.168 L -1.24,1.166 V 0 Z"
             style="fill:#f84b68;fill-opacity:1;fill-rule:nonzero;stroke:none"
             id="path38" /></g></g></g></g></svg>
