<?xml version="1.0" encoding="UTF-8" standalone="no"?>
<!-- Created with Inkscape (http://www.inkscape.org/) -->

<svg
   version="1.1"
   id="svg2"
   xml:space="preserve"
   width="186.66667"
   height="60"
   viewBox="0 0 186.66667 60"
   sodipodi:docname="3d1c58a216aa8d6f1321efa5d6dbaf9a.ai"
   xmlns:inkscape="http://www.inkscape.org/namespaces/inkscape"
   xmlns:sodipodi="http://sodipodi.sourceforge.net/DTD/sodipodi-0.dtd"
   xmlns="http://www.w3.org/2000/svg"
   xmlns:svg="http://www.w3.org/2000/svg"><defs
     id="defs6"><clipPath
       clipPathUnits="userSpaceOnUse"
       id="clipPath16"><path
         d="M 0,45 H 140 V 0 H 0 Z"
         id="path14" /></clipPath><clipPath
       clipPathUnits="userSpaceOnUse"
       id="clipPath24"><path
         d="M 0,45 H 140 V 0 H 0 Z"
         id="path22" /></clipPath><clipPath
       clipPathUnits="userSpaceOnUse"
       id="clipPath38"><path
         d="M 0,45 H 140 V 0 H 0 Z"
         id="path36" /></clipPath></defs><sodipodi:namedview
     id="namedview4"
     pagecolor="#ffffff"
     bordercolor="#666666"
     borderopacity="1.0"
     inkscape:pageshadow="2"
     inkscape:pageopacity="0.0"
     inkscape:pagecheckerboard="0" /><g
     id="g8"
     inkscape:groupmode="layer"
     inkscape:label="3d1c58a216aa8d6f1321efa5d6dbaf9a"
     transform="matrix(1.3333333,0,0,-1.3333333,0,60)"><g
       id="g10"><g
         id="g12"
         clip-path="url(#clipPath16)"><g
           id="g18"><g
             id="g20" /><g
             id="g30"><g
               clip-path="url(#clipPath24)"
               opacity="0"
               id="g28"><path
                 d="M 140,0 H 0 v 45 h 140 z"
                 style="fill:#ffffff;fill-opacity:1;fill-rule:nonzero;stroke:none"
                 id="path26" /></g></g></g></g></g><g
       id="g32"><g
         id="g34"
         clip-path="url(#clipPath38)"><g
           id="g40"
           transform="translate(24.5349,16.8024)"><path
             d="m 0,0 c 0,2.389 -0.627,4.24 -1.881,5.554 -1.274,1.393 -2.986,2.09 -5.135,2.09 -2.15,0 -3.842,-0.677 -5.076,-2.03 C -13.367,4.22 -14.003,2.349 -14.003,0 c 0,-2.369 0.636,-4.23 1.911,-5.584 1.214,-1.334 2.905,-2 5.076,-2 2.149,0 3.856,0.666 5.12,2 C -0.632,-4.25 0,-2.389 0,0 M 9.393,15.094 V -15.124 H -0.42 v 4.907 c -1.415,-2.095 -2.994,-3.631 -4.736,-4.608 -1.744,-0.977 -3.78,-1.466 -6.111,-1.466 -4.044,0 -7.262,1.476 -9.652,4.428 -1.176,1.456 -2.072,3.172 -2.69,5.146 -0.617,1.975 -0.926,4.199 -0.926,6.672 0,4.947 1.265,8.866 3.795,11.758 2.53,2.892 5.917,4.339 10.16,4.339 2.271,0 4.223,-0.491 5.857,-1.472 1.653,-0.941 3.068,-2.432 4.243,-4.473 v 4.987 z"
             style="fill:#ffffff;fill-opacity:1;fill-rule:nonzero;stroke:none"
             id="path42" /></g><g
           id="g44"
           transform="translate(42.5145,1.6784)"><path
             d="m 0,0 -0.06,22.679 h -3.38 v 7.539 h 3.38 v 9.006 h 10.591 v -9.006 h 4.458 V 22.679 H 10.531 L 10.531,0 Z"
             style="fill:#ffffff;fill-opacity:1;fill-rule:nonzero;stroke:none"
             id="path46" /></g><g
           id="g48"
           transform="translate(59.6582,4.1916)"><path
             d="M 0,0 2.214,8.138 C 3.77,6.761 5.485,5.723 7.36,5.024 9.215,4.288 11.089,3.919 12.985,3.919 c 1.356,0 2.373,0.229 3.051,0.687 0.698,0.418 1.048,1.026 1.048,1.822 0,1.334 -1.407,2.33 -4.219,2.987 -0.977,0.219 -1.716,0.408 -2.214,0.568 -3.251,0.957 -5.555,2.125 -6.911,3.502 -1.477,1.417 -2.214,3.253 -2.214,5.508 0,2.914 1.107,5.259 3.321,7.035 2.134,1.756 5.116,2.634 8.946,2.634 1.854,0 3.829,-0.22 5.923,-0.661 1.755,-0.361 3.8,-1.061 6.134,-2.103 L 23.636,18.55 c -1.436,0.978 -2.883,1.706 -4.338,2.185 -1.377,0.498 -2.823,0.747 -4.339,0.747 -1.237,0 -2.164,-0.189 -2.782,-0.568 -0.599,-0.358 -0.898,-0.906 -0.898,-1.642 0,-1.036 1.407,-1.932 4.219,-2.688 0.917,-0.28 1.386,-0.419 1.406,-0.419 3.67,-1.036 6.243,-2.262 7.719,-3.676 1.436,-1.495 2.154,-3.437 2.154,-5.828 0,-3.088 -1.187,-5.579 -3.56,-7.472 -2.434,-1.913 -5.575,-2.869 -9.424,-2.869 -2.674,0 -5.131,0.304 -7.375,0.913 C 4.174,-2.159 2.034,-1.237 0,0"
             style="fill:#ffffff;fill-opacity:1;fill-rule:nonzero;stroke:none"
             id="path50" /></g><g
           id="g52"
           transform="translate(118.4337,28.5449)"><path
             d="M 0,0 -3.717,-3.717 -6.64,-0.795 0,5.846 4.016,1.829 10.995,8.808 c -2.625,2.337 -6.083,3.759 -9.874,3.759 -8.201,0 -14.849,-6.648 -14.849,-14.849 0,-2.763 0.754,-5.35 2.07,-7.566 l 4.396,-8.454 -0.807,-8.564 h 18.414 c 0,0 -0.734,4.933 0.513,8.858 h 7.301 l 0.085,9.684 h 1.969 c 0,0 -5.974,13.079 -6.536,13.968 l -9.661,-9.66 z"
             style="fill:#ffffff;fill-opacity:1;fill-rule:nonzero;stroke:none"
             id="path54" /></g><g
           id="g56"
           transform="translate(139.9987,35.5616)"><path
             d="m 0,0 0.001,9.39 h -0.048 v 0.048 h -9.391 l 0.001,-3.359 h 3.155 L -10.57,1.791 c 1.034,-0.922 1.938,-1.987 2.682,-3.164 l 4.53,4.53 0,-3.157 z"
             style="fill:#ffffff;fill-opacity:1;fill-rule:nonzero;stroke:none"
             id="path58" /></g><g
           id="g60"
           transform="translate(99.1647,4.8404)"><path
             d="m 0,0 c 0,-1.746 -1.416,-3.162 -3.162,-3.162 -1.746,0 -3.162,1.416 -3.162,3.162 0,1.746 1.416,3.162 3.162,3.162 C -1.416,3.162 0,1.746 0,0"
             style="fill:#ffffff;fill-opacity:1;fill-rule:nonzero;stroke:none"
             id="path62" /></g></g></g></g></svg>
