<?xml version="1.0" standalone="no"?>
<!DOCTYPE svg PUBLIC "-//W3C//DTD SVG 20010904//EN"
 "http://www.w3.org/TR/2001/REC-SVG-20010904/DTD/svg10.dtd">
<svg version="1.0" xmlns="http://www.w3.org/2000/svg"
 width="740.000000pt" height="236.000000pt" viewBox="0 0 740.000000 236.000000"
 preserveAspectRatio="xMidYMid meet">
<metadata>
Created by potrace 1.16, written by Peter Selinger 2001-2019
</metadata>
<g transform="translate(0.000000,236.000000) scale(0.100000,-0.100000)"
fill="#000000" stroke="none">
<path d="M6890 2265 l0 -95 77 0 78 0 -104 -104 -104 -104 -51 38 c-213 159
-527 196 -777 91 -204 -86 -366 -262 -439 -478 -31 -92 -34 -107 -34 -238 -1
-167 16 -245 78 -368 24 -45 91 -175 150 -288 l107 -207 -21 -203 c-11 -112
-20 -214 -20 -226 l0 -23 488 0 487 0 1 183 c1 123 5 198 15 232 l14 50 193 3
192 2 0 134 c0 73 3 188 7 254 l6 122 49 0 c26 0 48 3 48 6 0 4 -75 167 -166
363 -91 196 -167 361 -170 366 -2 6 45 59 106 120 l110 110 0 -78 0 -77 95 0
95 0 0 255 0 255 -255 0 -255 0 0 -95z m62 -453 l17 -28 -249 -249 -250 -250
-105 105 -105 105 -98 -98 -97 -97 -73 73 -72 72 170 170 170 170 105 -105
105 -105 182 182 183 183 50 -50 c28 -28 58 -63 67 -78z"/>
<path d="M2240 1905 l0 -235 -85 0 -85 0 0 -205 0 -205 84 0 83 0 6 -82 c4
-46 7 -316 7 -600 l0 -518 280 0 280 0 0 600 0 600 120 0 120 0 0 205 0 205
-120 0 -120 0 0 235 0 235 -285 0 -285 0 0 -235z"/>
<path d="M632 1710 c-300 -42 -514 -240 -593 -549 -43 -169 -43 -433 1 -606
29 -119 107 -267 179 -347 77 -84 153 -134 261 -172 79 -29 94 -31 225 -31
158 0 214 13 327 72 67 35 158 114 216 188 l31 40 1 -122 0 -123 260 0 260 0
0 805 0 805 -265 0 -265 0 0 -121 0 -121 -45 60 c-74 101 -184 176 -301 207
-73 19 -212 26 -292 15z m465 -483 c75 -38 115 -78 152 -146 66 -124 65 -309
-1 -433 -37 -70 -82 -112 -158 -147 -47 -22 -69 -26 -155 -26 -87 0 -107 3
-155 26 -76 35 -121 77 -157 146 -103 195 -49 464 113 564 62 38 113 49 214
46 80 -3 103 -8 147 -30z"/>
<path d="M3745 1709 c-161 -20 -310 -90 -396 -187 -147 -166 -155 -440 -17
-597 81 -94 255 -176 494 -234 153 -37 224 -87 224 -158 0 -26 -8 -43 -33 -68
-107 -107 -454 -46 -676 119 -35 26 -67 44 -71 39 -3 -4 -30 -96 -59 -203 -29
-107 -54 -202 -57 -211 -4 -13 20 -29 98 -68 206 -101 358 -135 613 -135 204
-1 283 14 415 80 147 73 247 193 281 334 19 81 15 213 -10 290 -53 166 -177
251 -523 355 -166 50 -200 65 -240 103 -46 42 -32 104 30 136 104 54 352 9
522 -93 44 -27 67 -36 71 -28 8 14 106 344 111 371 6 32 -209 109 -392 141
-115 19 -288 26 -385 14z"/>
<path d="M5033 400 c-70 -16 -117 -70 -129 -145 -11 -78 45 -166 120 -186 90
-24 177 18 211 103 51 128 -66 261 -202 228z"/>
</g>
</svg>
